<?xml version="1.0" encoding="utf-8"?>
<!-- Generator: Adobe Illustrator 25.1.0, SVG Export Plug-In . SVG Version: 6.00 Build 0)  -->
<svg version="1.1" id="Ebene_1" xmlns="http://www.w3.org/2000/svg" xmlns:xlink="http://www.w3.org/1999/xlink" x="0px" y="0px"
	 viewBox="0 0 192 20" style="enable-background:new 0 0 192 20;" xml:space="preserve">
<g>
	<path d="M1.31,19.86v-1.74c0.4-0.02,0.74-0.07,1.01-0.16c0.27-0.09,0.48-0.29,0.63-0.6c0.15-0.32,0.22-0.82,0.22-1.53V5.76
		c0-0.47,0.01-0.93,0.04-1.37s0.05-0.77,0.07-1C3.01,3.41,2.66,3.42,2.24,3.43C1.81,3.44,1.51,3.45,1.31,3.47V1.45
		c1.21-0.02,2.42-0.03,3.64-0.03S7.39,1.41,8.6,1.39c2.1-0.02,3.77,0.37,5.01,1.17s1.81,2,1.72,3.62c-0.04,0.51-0.19,1-0.47,1.49
		c-0.28,0.48-0.7,0.92-1.25,1.3s-1.24,0.69-2.06,0.92v0.03c1.75,0.28,3.04,0.86,3.87,1.75c0.82,0.89,1.24,1.87,1.24,2.96
		c0,1.14-0.28,2.1-0.83,2.88c-0.55,0.78-1.31,1.37-2.28,1.76s-2.06,0.59-3.29,0.59H1.31z M6.89,17.99c0.32,0,0.61,0,0.89,0
		c0.28,0,0.56,0,0.84-0.01c0.28-0.01,0.55-0.01,0.82-0.01c1.07-0.05,1.85-0.39,2.34-1.03c0.49-0.63,0.74-1.43,0.74-2.39
		c0-0.81-0.17-1.44-0.5-1.91c-0.33-0.46-0.76-0.79-1.28-0.99c-0.52-0.19-1.06-0.29-1.62-0.29c-0.44,0-0.82,0-1.13,0
		c-0.32,0-0.65,0.01-1,0.03v4.29c0,0.47-0.01,0.92-0.03,1.34C6.95,17.44,6.93,17.76,6.89,17.99z M7,9.52L8.36,9.5
		C9.1,9.48,9.68,9.31,10.11,9c0.43-0.32,0.74-0.74,0.92-1.28c0.18-0.53,0.28-1.12,0.28-1.75c0-0.7-0.14-1.25-0.42-1.64
		s-0.63-0.68-1.05-0.85C9.42,3.3,8.98,3.22,8.52,3.23c-0.28,0-0.54,0.04-0.76,0.13C7.53,3.45,7.35,3.65,7.21,3.96
		C7.07,4.27,7,4.76,7,5.44V9.52z"/>
	<path d="M27.36,13.52c0-0.74-0.11-1.27-0.34-1.59c-0.23-0.32-0.54-0.53-0.93-0.62c-0.39-0.09-0.83-0.12-1.3-0.11l-0.68,0.03v4.31
		c0,0.47-0.01,0.92-0.03,1.34c-0.02,0.42-0.04,0.75-0.08,0.97h3.52c0.53,0,1.03-0.12,1.53-0.35c0.49-0.24,0.89-0.63,1.21-1.18
		s0.47-1.3,0.47-2.25h1.71l-0.13,5.79H18.41v-1.74c0.4-0.02,0.74-0.07,1.01-0.16c0.27-0.09,0.48-0.29,0.63-0.6
		c0.15-0.32,0.22-0.82,0.22-1.53V5.76c0-0.47,0.01-0.93,0.04-1.37s0.05-0.77,0.07-1c-0.28,0.02-0.63,0.03-1.05,0.04
		c-0.42,0.01-0.73,0.02-0.92,0.04V1.45h13.15l0.16,5.1h-1.74c0-0.96-0.17-1.69-0.5-2.18c-0.33-0.49-0.75-0.82-1.24-0.99
		c-0.49-0.17-0.97-0.24-1.45-0.22l-0.95,0.03c-0.37,0-0.68,0.05-0.95,0.14c-0.26,0.1-0.46,0.31-0.6,0.63
		c-0.14,0.32-0.21,0.83-0.21,1.51v3.95h3.08l-0.1-2.29h2.03v6.39H27.36z"/>
	<path d="M34.82,19.86v-1.74c0.4-0.02,0.74-0.07,1.01-0.16c0.27-0.09,0.48-0.29,0.63-0.6c0.15-0.32,0.22-0.82,0.22-1.53V5.76
		c0-0.47,0.01-0.93,0.04-1.37s0.05-0.77,0.07-1c-0.28,0.02-0.63,0.03-1.05,0.04c-0.42,0.01-0.73,0.02-0.92,0.04V1.45
		c1.25-0.02,2.49-0.03,3.74-0.03c1.24,0,2.49-0.01,3.73-0.03c1.54-0.02,2.88,0.16,4.02,0.53c1.14,0.37,2.02,0.96,2.63,1.79
		c0.61,0.82,0.9,1.94,0.87,3.34c-0.02,0.74-0.2,1.44-0.54,2.1s-0.85,1.25-1.53,1.76c-0.68,0.51-1.53,0.91-2.56,1.21
		c0.33,0.14,0.66,0.37,0.99,0.68c0.32,0.32,0.6,0.65,0.83,1l1.24,1.84c0.39,0.6,0.73,1.07,1.03,1.42c0.3,0.35,0.6,0.61,0.89,0.78
		c0.3,0.17,0.64,0.26,1.03,0.28v1.74h-4.34c-0.32-0.23-0.63-0.56-0.93-0.99c-0.31-0.43-0.64-0.92-0.99-1.49l-1.95-3.16
		c-0.23-0.35-0.43-0.65-0.59-0.89s-0.34-0.46-0.51-0.63c-0.28,0-0.52,0-0.71,0c-0.19,0-0.41,0-0.66,0v2.81
		c0,0.49-0.01,0.96-0.03,1.39c-0.02,0.44-0.04,0.77-0.08,1c0.19-0.02,0.44-0.03,0.74-0.04c0.3-0.01,0.59-0.02,0.88-0.03
		c0.29-0.01,0.5-0.01,0.62-0.01v2.03H34.82z M41.77,10.81c0.98,0,1.77-0.14,2.37-0.43c0.6-0.29,1.03-0.73,1.3-1.32
		c0.27-0.59,0.41-1.33,0.41-2.22c0-0.84-0.13-1.5-0.39-1.99c-0.26-0.48-0.59-0.84-0.99-1.08c-0.39-0.24-0.79-0.39-1.2-0.45
		s-0.74-0.09-1-0.09c-0.37,0-0.68,0.04-0.95,0.13s-0.46,0.28-0.6,0.58c-0.14,0.3-0.21,0.75-0.21,1.37v5.39
		c0.19,0.02,0.39,0.04,0.6,0.07C41.32,10.8,41.54,10.81,41.77,10.81z"/>
	<path d="M60.42,3.18c-0.39,0.02-0.72,0.07-1,0.16c-0.28,0.09-0.5,0.29-0.64,0.59c-0.15,0.31-0.22,0.82-0.22,1.54v10.07
		c0,0.47-0.01,0.93-0.03,1.37c-0.02,0.44-0.04,0.77-0.08,1c0.28-0.04,0.64-0.06,1.07-0.07c0.43-0.01,0.73-0.01,0.91-0.01v2.03h-7.55
		v-1.74c0.4-0.02,0.74-0.07,1.01-0.16c0.27-0.09,0.48-0.29,0.63-0.6c0.15-0.32,0.22-0.82,0.22-1.53V5.76c0-0.47,0.01-0.93,0.04-1.37
		s0.05-0.77,0.07-1c-0.28,0.02-0.63,0.03-1.05,0.04c-0.42,0.01-0.73,0.02-0.92,0.04V1.45h7.55V3.18z"/>
	<path d="M76.65,7.39c0-0.95-0.13-1.73-0.39-2.35c-0.26-0.62-0.64-1.09-1.12-1.39c-0.48-0.31-1.06-0.45-1.72-0.43h-1.26v12.34
		c0,0.47-0.01,0.93-0.03,1.37c-0.02,0.44-0.04,0.77-0.08,1c0.3-0.04,0.68-0.06,1.14-0.07c0.46-0.01,0.78-0.01,0.96-0.01v2.03h-7.68
		v-1.74c0.4-0.02,0.74-0.07,1.01-0.16c0.27-0.09,0.48-0.29,0.63-0.6c0.15-0.32,0.22-0.82,0.22-1.53V3.23h-1.21
		c-1,0.02-1.79,0.36-2.37,1.03c-0.58,0.67-0.87,1.71-0.87,3.13h-1.74l0.13-5.94h15.94l0.16,5.94H76.65z"/>
	<path d="M97.69,7.34c-0.16-0.98-0.44-1.8-0.84-2.46s-0.92-1.15-1.54-1.49c-0.62-0.33-1.35-0.49-2.17-0.47
		c-0.75,0-1.42,0.21-1.99,0.63c-0.57,0.42-0.85,0.96-0.85,1.63c0,0.54,0.15,1.02,0.46,1.42c0.31,0.4,0.78,0.78,1.41,1.13
		c0.63,0.35,1.43,0.73,2.39,1.13c0.67,0.26,1.35,0.57,2.05,0.92c0.7,0.35,1.35,0.77,1.95,1.25c0.6,0.48,1.08,1.04,1.45,1.68
		c0.37,0.64,0.55,1.39,0.55,2.25c0,1.03-0.28,1.96-0.84,2.76c-0.56,0.81-1.35,1.43-2.35,1.88c-1.01,0.45-2.19,0.67-3.54,0.67
		c-0.7,0-1.46-0.11-2.28-0.33c-0.82-0.22-1.58-0.54-2.3-0.96l0.08,1.1H87.3v-6.15h1.74c0.25,1.47,0.81,2.58,1.7,3.33
		c0.89,0.75,1.94,1.12,3.17,1.12c0.63,0,1.18-0.11,1.66-0.34c0.47-0.23,0.84-0.53,1.1-0.91c0.26-0.38,0.39-0.78,0.39-1.22
		c0-0.61-0.21-1.12-0.64-1.53c-0.43-0.4-0.96-0.75-1.6-1.03c-0.64-0.28-1.29-0.55-1.96-0.82c-0.84-0.35-1.63-0.72-2.35-1.12
		s-1.36-0.85-1.91-1.35c-0.54-0.51-0.96-1.09-1.26-1.75c-0.3-0.66-0.45-1.42-0.45-2.28c0-0.54,0.11-1.11,0.32-1.7
		s0.55-1.13,1.03-1.63c0.47-0.5,1.1-0.91,1.89-1.22s1.76-0.47,2.92-0.47c0.7,0,1.47,0.11,2.3,0.32c0.83,0.21,1.55,0.53,2.14,0.95
		l-0.1-1.08h2.05v6.13H97.69z"/>
	<path d="M116.39,7.39c0-0.95-0.13-1.73-0.39-2.35c-0.26-0.62-0.64-1.09-1.12-1.39c-0.48-0.31-1.06-0.45-1.72-0.43h-1.26v12.34
		c0,0.47-0.01,0.93-0.03,1.37c-0.02,0.44-0.04,0.77-0.08,1c0.3-0.04,0.68-0.06,1.14-0.07c0.46-0.01,0.78-0.01,0.96-0.01v2.03h-7.68
		v-1.74c0.4-0.02,0.74-0.07,1.01-0.16c0.27-0.09,0.48-0.29,0.63-0.6c0.15-0.32,0.22-0.82,0.22-1.53V3.23h-1.21
		c-1,0.02-1.79,0.36-2.37,1.03c-0.58,0.67-0.87,1.71-0.87,3.13h-1.74l0.13-5.94h15.94l0.16,5.94H116.39z"/>
	<path d="M117.28,19.86v-1.81c0.49,0,0.89-0.14,1.18-0.42c0.3-0.28,0.55-0.65,0.75-1.1c0.2-0.46,0.4-0.95,0.59-1.47l5.13-14.07h1.84
		l5.6,14.33c0.1,0.26,0.25,0.66,0.42,1.2c0.17,0.54,0.28,1,0.32,1.41c0.3-0.04,0.58-0.06,0.85-0.07c0.27-0.01,0.5-0.01,0.67-0.01
		v2.03h-7.08v-1.74c0.49,0,0.83-0.1,1.01-0.3c0.18-0.2,0.27-0.48,0.25-0.83c-0.02-0.35-0.11-0.75-0.29-1.18l-0.53-1.45l-5.71,0.1
		l-0.42,1.24c-0.09,0.23-0.21,0.57-0.38,1.01s-0.32,0.82-0.46,1.12c0.28-0.03,0.62-0.06,1.01-0.07c0.39-0.01,0.68-0.01,0.85-0.01
		v2.1H117.28z M122.96,12.49h4.39l-1.21-3.29c-0.23-0.63-0.43-1.27-0.6-1.91s-0.31-1.21-0.39-1.7h-0.03
		c-0.07,0.3-0.18,0.75-0.32,1.34c-0.14,0.6-0.36,1.31-0.66,2.13L122.96,12.49z"/>
	<path d="M150.06,20.12l-8.42-10.76c-0.23-0.3-0.46-0.61-0.71-0.95c-0.25-0.33-0.49-0.67-0.74-1.03h-0.03l0.05,8.15
		c0,0.47-0.01,0.93-0.03,1.37c-0.02,0.44-0.04,0.77-0.08,1c0.28-0.04,0.64-0.06,1.07-0.07c0.43-0.01,0.73-0.01,0.91-0.01v2.03h-6
		v-1.74c0.4-0.02,0.74-0.07,1.01-0.16c0.27-0.09,0.48-0.29,0.63-0.6c0.15-0.32,0.22-0.82,0.22-1.53L137.9,5.76
		c0-0.47,0.01-0.93,0.03-1.37c0.02-0.44,0.04-0.77,0.08-1c-0.28,0.02-0.64,0.03-1.07,0.04c-0.43,0.01-0.74,0.02-0.93,0.04V1.45h4.13
		l8.05,10.15c0.44,0.56,0.8,1.04,1.09,1.45c0.29,0.4,0.54,0.75,0.75,1.05h0.03V5.76c0-0.47,0.01-0.93,0.03-1.37
		c0.02-0.44,0.04-0.77,0.05-1c-0.28,0.02-0.63,0.03-1.05,0.04c-0.42,0.01-0.73,0.02-0.92,0.04V1.45h6v1.74
		c-0.39,0.02-0.72,0.07-1,0.16c-0.28,0.09-0.5,0.29-0.64,0.59c-0.15,0.31-0.22,0.82-0.22,1.54v14.65H150.06z"/>
	<path d="M164.71,20.28c-1.89,0-3.51-0.42-4.84-1.25c-1.33-0.83-2.35-1.96-3.05-3.38c-0.7-1.42-1.05-3-1.05-4.73
		c0-1.19,0.19-2.38,0.57-3.55s0.94-2.24,1.7-3.2c0.75-0.96,1.71-1.72,2.85-2.29c1.15-0.57,2.49-0.85,4.01-0.85
		c0.47,0,1.01,0.05,1.6,0.15s1.2,0.24,1.8,0.43s1.14,0.43,1.62,0.71l-0.1-1.1h2.03v6.13h-1.71c-0.16-0.98-0.46-1.8-0.92-2.45
		c-0.46-0.65-1.03-1.14-1.71-1.47c-0.68-0.33-1.44-0.5-2.26-0.5c-0.91,0-1.71,0.21-2.38,0.63c-0.68,0.42-1.23,0.98-1.67,1.68
		c-0.44,0.7-0.77,1.5-0.99,2.39c-0.22,0.89-0.33,1.81-0.33,2.76c0,1.51,0.21,2.85,0.63,4.02c0.42,1.18,1.04,2.1,1.85,2.77
		c0.82,0.68,1.82,1.01,3.01,1.01c0.33,0,0.73-0.03,1.18-0.08c0.46-0.05,0.91-0.13,1.37-0.24c0.46-0.11,0.84-0.24,1.16-0.39v-2.45
		c0-0.47,0.01-0.93,0.04-1.37c0.03-0.44,0.05-0.77,0.07-1c-0.28,0.02-0.63,0.03-1.05,0.04s-0.73,0.02-0.92,0.04v-2.03h7v1.74
		c-0.3,0.02-0.56,0.05-0.78,0.11c-0.22,0.05-0.4,0.15-0.55,0.3c-0.15,0.15-0.26,0.37-0.33,0.67c-0.07,0.3-0.1,0.7-0.1,1.21v4.21
		h-0.63c-0.51,0-1.02,0.07-1.53,0.21c-0.51,0.14-1.05,0.3-1.63,0.47c-0.54,0.16-1.14,0.3-1.79,0.43
		C166.22,20.21,165.5,20.28,164.71,20.28z"/>
	<path d="M184.91,13.52c0-0.74-0.11-1.27-0.34-1.59c-0.23-0.32-0.54-0.53-0.93-0.62c-0.39-0.09-0.83-0.12-1.3-0.11l-0.68,0.03v4.31
		c0,0.47-0.01,0.92-0.03,1.34c-0.02,0.42-0.04,0.75-0.08,0.97h3.52c0.53,0,1.03-0.12,1.53-0.35c0.49-0.24,0.89-0.63,1.21-1.18
		s0.47-1.3,0.47-2.25h1.71l-0.13,5.79h-13.89v-1.74c0.4-0.02,0.74-0.07,1.01-0.16c0.27-0.09,0.48-0.29,0.63-0.6
		c0.15-0.32,0.22-0.82,0.22-1.53V5.76c0-0.47,0.01-0.93,0.04-1.37s0.05-0.77,0.07-1c-0.28,0.02-0.63,0.03-1.05,0.04
		c-0.42,0.01-0.73,0.02-0.92,0.04V1.45h13.15l0.16,5.1h-1.74c0-0.96-0.17-1.69-0.5-2.18c-0.33-0.49-0.75-0.82-1.24-0.99
		c-0.49-0.17-0.97-0.24-1.45-0.22l-0.95,0.03c-0.37,0-0.68,0.05-0.95,0.14c-0.26,0.1-0.46,0.31-0.6,0.63
		c-0.14,0.32-0.21,0.83-0.21,1.51v3.95h3.08l-0.1-2.29h2.03v6.39H184.91z"/>
</g>
</svg>
