<?xml version="1.0" ?><svg id="Layer_1" style="enable-background:new 0 0 515 515;" version="1.1" viewBox="0 0 515 515" xml:space="preserve" xmlns="http://www.w3.org/2000/svg" xmlns:xlink="http://www.w3.org/1999/xlink"><title/><g id="Layer_2"><g id="Layer_1-2"><path d="M257.5,465.8c115.2,0.1,208.6-93.1,208.8-208.3S373.1,48.9,258,48.7S49.3,141.9,49.2,257c-0.1,55.4,21.9,108.5,61.1,147.7    C149.3,443.9,202.3,465.8,257.5,465.8z M257.5,70.1c103.6-0.1,187.7,83.9,187.8,187.5c0.1,103.6-83.9,187.7-187.5,187.8    C154.2,445.4,70.1,361.5,70,257.9c0-49.8,19.7-97.6,55-132.9C160.1,89.8,207.8,70,257.5,70.1L257.5,70.1z"/><path d="M161.7,319.5c18.2,11.7,39.4,17.9,61,17.9c16.7,0.1,33.3-3.4,48.5-10.4c20.1-9.4,36.9-24.8,48.2-44    c10.6-17.8,16.3-38.1,16.5-58.9c0-1.1,0-2.2,0-3.3c7.2-5.5,13.5-12.1,18.6-19.7c1.1-1.6,0.6-3.8-1-4.9c-1-0.7-2.3-0.8-3.4-0.3    c-2.7,1.2-5.4,2.2-8.2,3c3.5-4.1,6.1-8.9,7.7-14c0.6-1.8-0.4-3.8-2.3-4.4c-1-0.3-2-0.2-2.9,0.3c-6.7,4-14,6.8-21.6,8.5    c-16.7-16.2-43.3-15.7-59.5,1c-7.6,7.8-11.8,18.3-11.8,29.3c0,1.7,0.1,3.3,0.3,5c-28.4-2.6-54.5-16.5-72.5-38.7    c-1.2-1.5-3.4-1.7-4.9-0.5c-0.3,0.3-0.6,0.6-0.8,1c-8.7,15-7.4,33.8,3.5,47.3c-1.5-0.6-2.9-1.2-4.3-2c-1.7-0.9-3.8-0.3-4.8,1.4    c-0.3,0.5-0.4,1-0.4,1.6c0,0.3,0,0.4,0,0.6c0,14.2,7.2,27.5,19.2,35.3c-0.5-0.1-1-0.2-1.5-0.3c-1.9-0.4-3.7,0.9-4.1,2.8    c-0.1,0.6-0.1,1.2,0.1,1.7c4.4,13.9,15.8,24.5,29.9,28C197,311.4,180.4,315,164,313c-1.9-0.2-3.7,1.1-3.9,3.1    C160,317.4,160.6,318.7,161.7,319.5L161.7,319.5z"/></g></g></svg>